<mxfile host="app.diagrams.net" agent="Mozilla/5.0 (Windows NT 10.0; Win64; x64) AppleWebKit/537.36 (KHTML, like Gecko) Chrome/131.0.0.0 Safari/537.36" version="24.8.6">
  <diagram name="Page-1" id="DNe7bdjcsITiFmNubsdb">
    <mxGraphModel dx="2266" dy="818" grid="1" gridSize="10" guides="1" tooltips="1" connect="1" arrows="1" fold="1" page="1" pageScale="1" pageWidth="1400" pageHeight="850" math="0" shadow="0">
      <root>
        <mxCell id="0" />
        <mxCell id="1" parent="0" />
        <mxCell id="rYqSU0_YD1WcTbU8GYVV-1" value="Available" style="rounded=1;whiteSpace=wrap;html=1;" vertex="1" parent="1">
          <mxGeometry x="180" y="220" width="120" height="60" as="geometry" />
        </mxCell>
        <mxCell id="rYqSU0_YD1WcTbU8GYVV-2" value="" style="ellipse;html=1;shape=startState;fillColor=#000000;strokeColor=#000000;" vertex="1" parent="1">
          <mxGeometry y="235" width="30" height="30" as="geometry" />
        </mxCell>
        <mxCell id="rYqSU0_YD1WcTbU8GYVV-3" value="" style="edgeStyle=orthogonalEdgeStyle;html=1;verticalAlign=bottom;endArrow=open;endSize=8;strokeColor=#000000;rounded=0;entryX=0;entryY=0.5;entryDx=0;entryDy=0;" edge="1" source="rYqSU0_YD1WcTbU8GYVV-2" parent="1" target="rYqSU0_YD1WcTbU8GYVV-1">
          <mxGeometry relative="1" as="geometry">
            <mxPoint x="65" y="175" as="targetPoint" />
            <Array as="points">
              <mxPoint x="60" y="250" />
              <mxPoint x="60" y="250" />
            </Array>
          </mxGeometry>
        </mxCell>
        <mxCell id="rYqSU0_YD1WcTbU8GYVV-29" value="Showtime is created" style="edgeLabel;html=1;align=center;verticalAlign=middle;resizable=0;points=[];" vertex="1" connectable="0" parent="rYqSU0_YD1WcTbU8GYVV-3">
          <mxGeometry x="-0.1636" y="-4" relative="1" as="geometry">
            <mxPoint as="offset" />
          </mxGeometry>
        </mxCell>
        <mxCell id="rYqSU0_YD1WcTbU8GYVV-5" value="Booked" style="rounded=1;whiteSpace=wrap;html=1;" vertex="1" parent="1">
          <mxGeometry x="370" y="390" width="120" height="60" as="geometry" />
        </mxCell>
        <mxCell id="rYqSU0_YD1WcTbU8GYVV-8" value="In Cart" style="rounded=1;whiteSpace=wrap;html=1;" vertex="1" parent="1">
          <mxGeometry x="560" y="220" width="120" height="60" as="geometry" />
        </mxCell>
        <mxCell id="rYqSU0_YD1WcTbU8GYVV-28" value="&lt;font style=&quot;font-size: 20px;&quot;&gt;State Transition Diagram: Seat&lt;/font&gt;" style="text;html=1;align=center;verticalAlign=middle;whiteSpace=wrap;rounded=0;" vertex="1" parent="1">
          <mxGeometry x="220" y="30" width="250" height="50" as="geometry" />
        </mxCell>
        <mxCell id="rYqSU0_YD1WcTbU8GYVV-35" value="" style="edgeStyle=orthogonalEdgeStyle;html=1;verticalAlign=bottom;endArrow=open;endSize=8;strokeColor=#000000;rounded=0;entryX=1;entryY=0.5;entryDx=0;entryDy=0;exitX=0;exitY=0.5;exitDx=0;exitDy=0;" edge="1" parent="1" source="rYqSU0_YD1WcTbU8GYVV-8" target="rYqSU0_YD1WcTbU8GYVV-1">
          <mxGeometry relative="1" as="geometry">
            <mxPoint x="539.5" y="380" as="targetPoint" />
            <mxPoint x="539.5" y="250" as="sourcePoint" />
            <Array as="points">
              <mxPoint x="520" y="250" />
              <mxPoint x="520" y="250" />
            </Array>
          </mxGeometry>
        </mxCell>
        <mxCell id="rYqSU0_YD1WcTbU8GYVV-40" value="Removed Ticket from Cart" style="edgeLabel;html=1;align=center;verticalAlign=middle;resizable=0;points=[];" vertex="1" connectable="0" parent="rYqSU0_YD1WcTbU8GYVV-35">
          <mxGeometry x="0.0588" y="-2" relative="1" as="geometry">
            <mxPoint as="offset" />
          </mxGeometry>
        </mxCell>
        <mxCell id="rYqSU0_YD1WcTbU8GYVV-38" value="" style="edgeStyle=orthogonalEdgeStyle;html=1;verticalAlign=bottom;endArrow=open;endSize=8;strokeColor=#000000;rounded=0;entryX=0.5;entryY=0;entryDx=0;entryDy=0;exitX=0.5;exitY=0;exitDx=0;exitDy=0;" edge="1" parent="1" source="rYqSU0_YD1WcTbU8GYVV-1" target="rYqSU0_YD1WcTbU8GYVV-8">
          <mxGeometry relative="1" as="geometry">
            <mxPoint x="410" y="90" as="targetPoint" />
            <mxPoint x="260" y="90" as="sourcePoint" />
            <Array as="points">
              <mxPoint x="240" y="130" />
              <mxPoint x="620" y="130" />
            </Array>
          </mxGeometry>
        </mxCell>
        <mxCell id="rYqSU0_YD1WcTbU8GYVV-39" value="Seat Selected/ Ticket added to Cart" style="edgeLabel;html=1;align=center;verticalAlign=middle;resizable=0;points=[];" vertex="1" connectable="0" parent="rYqSU0_YD1WcTbU8GYVV-38">
          <mxGeometry x="-0.1636" y="-4" relative="1" as="geometry">
            <mxPoint x="61" y="-4" as="offset" />
          </mxGeometry>
        </mxCell>
        <mxCell id="rYqSU0_YD1WcTbU8GYVV-47" value="" style="edgeStyle=orthogonalEdgeStyle;html=1;verticalAlign=bottom;endArrow=open;endSize=8;strokeColor=#000000;rounded=0;entryX=1;entryY=0.5;entryDx=0;entryDy=0;exitX=0.5;exitY=1;exitDx=0;exitDy=0;" edge="1" parent="1" source="rYqSU0_YD1WcTbU8GYVV-8" target="rYqSU0_YD1WcTbU8GYVV-5">
          <mxGeometry relative="1" as="geometry">
            <mxPoint x="750" y="320" as="targetPoint" />
            <mxPoint x="1010" y="320" as="sourcePoint" />
            <Array as="points">
              <mxPoint x="620" y="420" />
            </Array>
          </mxGeometry>
        </mxCell>
        <mxCell id="rYqSU0_YD1WcTbU8GYVV-49" value="Purchase Ticket" style="edgeLabel;html=1;align=center;verticalAlign=middle;resizable=0;points=[];" vertex="1" connectable="0" parent="rYqSU0_YD1WcTbU8GYVV-47">
          <mxGeometry x="0.0588" y="-2" relative="1" as="geometry">
            <mxPoint y="-28" as="offset" />
          </mxGeometry>
        </mxCell>
        <mxCell id="rYqSU0_YD1WcTbU8GYVV-53" value="" style="edgeStyle=orthogonalEdgeStyle;html=1;verticalAlign=bottom;endArrow=open;endSize=8;strokeColor=#000000;rounded=0;entryX=0.5;entryY=1;entryDx=0;entryDy=0;exitX=0;exitY=0.5;exitDx=0;exitDy=0;" edge="1" parent="1" source="rYqSU0_YD1WcTbU8GYVV-5" target="rYqSU0_YD1WcTbU8GYVV-1">
          <mxGeometry relative="1" as="geometry">
            <mxPoint x="90" y="424" as="targetPoint" />
            <mxPoint x="350" y="424" as="sourcePoint" />
            <Array as="points">
              <mxPoint x="240" y="420" />
            </Array>
          </mxGeometry>
        </mxCell>
        <mxCell id="rYqSU0_YD1WcTbU8GYVV-55" value="Cancel Ticket" style="edgeLabel;html=1;align=center;verticalAlign=middle;resizable=0;points=[];" vertex="1" connectable="0" parent="rYqSU0_YD1WcTbU8GYVV-53">
          <mxGeometry x="0.0588" y="-2" relative="1" as="geometry">
            <mxPoint x="-2" y="-41" as="offset" />
          </mxGeometry>
        </mxCell>
      </root>
    </mxGraphModel>
  </diagram>
</mxfile>
